<svg width="190" height="110" viewBox="0 0 190 110" fill="none" xmlns="http://www.w3.org/2000/svg">
<path d="M103.414 59.224H107.094V61H101.174V49.832H103.414V59.224ZM116.758 56.376C116.758 56.696 116.737 56.984 116.694 57.24H110.214C110.267 57.88 110.491 58.3813 110.886 58.744C111.281 59.1067 111.766 59.288 112.342 59.288C113.174 59.288 113.766 58.9307 114.118 58.216H116.534C116.278 59.0693 115.787 59.7733 115.062 60.328C114.337 60.872 113.446 61.144 112.39 61.144C111.537 61.144 110.769 60.9573 110.086 60.584C109.414 60.2 108.886 59.6613 108.502 58.968C108.129 58.2747 107.942 57.4747 107.942 56.568C107.942 55.6507 108.129 54.8453 108.502 54.152C108.875 53.4587 109.398 52.9253 110.07 52.552C110.742 52.1787 111.515 51.992 112.39 51.992C113.233 51.992 113.985 52.1733 114.646 52.536C115.318 52.8987 115.835 53.416 116.198 54.088C116.571 54.7493 116.758 55.512 116.758 56.376ZM114.438 55.736C114.427 55.16 114.219 54.7013 113.814 54.36C113.409 54.008 112.913 53.832 112.326 53.832C111.771 53.832 111.302 54.0027 110.918 54.344C110.545 54.6747 110.315 55.1387 110.23 55.736H114.438ZM117.817 56.536C117.817 55.64 117.993 54.8453 118.345 54.152C118.708 53.4587 119.193 52.9253 119.801 52.552C120.42 52.1787 121.108 51.992 121.865 51.992C122.526 51.992 123.102 52.1253 123.593 52.392C124.094 52.6587 124.494 52.9947 124.793 53.4V52.136H127.049V61H124.793V59.704C124.505 60.12 124.105 60.4667 123.593 60.744C123.092 61.0107 122.51 61.144 121.849 61.144C121.102 61.144 120.42 60.952 119.801 60.568C119.193 60.184 118.708 59.6453 118.345 58.952C117.993 58.248 117.817 57.4427 117.817 56.536ZM124.793 56.568C124.793 56.024 124.686 55.56 124.473 55.176C124.26 54.7813 123.972 54.4827 123.609 54.28C123.246 54.0667 122.857 53.96 122.441 53.96C122.025 53.96 121.641 54.0613 121.289 54.264C120.937 54.4667 120.649 54.7653 120.425 55.16C120.212 55.544 120.105 56.0027 120.105 56.536C120.105 57.0693 120.212 57.5387 120.425 57.944C120.649 58.3387 120.937 58.6427 121.289 58.856C121.652 59.0693 122.036 59.176 122.441 59.176C122.857 59.176 123.246 59.0747 123.609 58.872C123.972 58.6587 124.26 58.36 124.473 57.976C124.686 57.5813 124.793 57.112 124.793 56.568ZM131.477 53.512C131.765 53.0427 132.138 52.6747 132.597 52.408C133.066 52.1413 133.599 52.008 134.197 52.008V54.36H133.605C132.901 54.36 132.367 54.5253 132.005 54.856C131.653 55.1867 131.477 55.7627 131.477 56.584V61H129.237V52.136H131.477V53.512ZM140.618 52.008C141.674 52.008 142.527 52.344 143.178 53.016C143.828 53.6773 144.154 54.6053 144.154 55.8V61H141.914V56.104C141.914 55.4 141.738 54.8613 141.386 54.488C141.034 54.104 140.554 53.912 139.946 53.912C139.327 53.912 138.836 54.104 138.474 54.488C138.122 54.8613 137.946 55.4 137.946 56.104V61H135.706V52.136H137.946V53.24C138.244 52.856 138.623 52.5573 139.082 52.344C139.551 52.12 140.063 52.008 140.618 52.008ZM162.272 49.832V61H160.032V53.736L157.04 61H155.344L152.336 53.736V61H150.096V49.832H152.64L156.192 58.136L159.744 49.832H162.272ZM168.423 61.144C167.569 61.144 166.801 60.9573 166.119 60.584C165.436 60.2 164.897 59.6613 164.503 58.968C164.119 58.2747 163.927 57.4747 163.927 56.568C163.927 55.6613 164.124 54.8613 164.519 54.168C164.924 53.4747 165.473 52.9413 166.167 52.568C166.86 52.184 167.633 51.992 168.487 51.992C169.34 51.992 170.113 52.184 170.807 52.568C171.5 52.9413 172.044 53.4747 172.439 54.168C172.844 54.8613 173.047 55.6613 173.047 56.568C173.047 57.4747 172.839 58.2747 172.423 58.968C172.017 59.6613 171.463 60.2 170.759 60.584C170.065 60.9573 169.287 61.144 168.423 61.144ZM168.423 59.192C168.828 59.192 169.207 59.096 169.559 58.904C169.921 58.7013 170.209 58.4027 170.423 58.008C170.636 57.6133 170.743 57.1333 170.743 56.568C170.743 55.7253 170.519 55.08 170.071 54.632C169.633 54.1733 169.095 53.944 168.455 53.944C167.815 53.944 167.276 54.1733 166.839 54.632C166.412 55.08 166.199 55.7253 166.199 56.568C166.199 57.4107 166.407 58.0613 166.823 58.52C167.249 58.968 167.783 59.192 168.423 59.192ZM176.93 53.512C177.218 53.0427 177.591 52.6747 178.05 52.408C178.519 52.1413 179.053 52.008 179.65 52.008V54.36H179.058C178.354 54.36 177.821 54.5253 177.458 54.856C177.106 55.1867 176.93 55.7627 176.93 56.584V61H174.69V52.136H176.93V53.512ZM189.399 56.376C189.399 56.696 189.377 56.984 189.335 57.24H182.855C182.908 57.88 183.132 58.3813 183.527 58.744C183.921 59.1067 184.407 59.288 184.983 59.288C185.815 59.288 186.407 58.9307 186.759 58.216H189.175C188.919 59.0693 188.428 59.7733 187.703 60.328C186.977 60.872 186.087 61.144 185.031 61.144C184.177 61.144 183.409 60.9573 182.727 60.584C182.055 60.2 181.527 59.6613 181.143 58.968C180.769 58.2747 180.583 57.4747 180.583 56.568C180.583 55.6507 180.769 54.8453 181.143 54.152C181.516 53.4587 182.039 52.9253 182.711 52.552C183.383 52.1787 184.156 51.992 185.031 51.992C185.873 51.992 186.625 52.1733 187.287 52.536C187.959 52.8987 188.476 53.416 188.839 54.088C189.212 54.7493 189.399 55.512 189.399 56.376ZM187.079 55.736C187.068 55.16 186.86 54.7013 186.455 54.36C186.049 54.008 185.553 53.832 184.967 53.832C184.412 53.832 183.943 54.0027 183.559 54.344C183.185 54.6747 182.956 55.1387 182.871 55.736H187.079Z" fill="#4D4F56"/>
<path d="M55 23C50.7977 23 46.6365 23.8277 42.7541 25.4359C38.8717 27.044 35.3441 29.4011 32.3726 32.3726C29.4011 35.3441 27.044 38.8717 25.4359 42.7541C23.8277 46.6366 23 50.7977 23 55C23 59.2023 23.8277 63.3635 25.4359 67.2459C27.044 71.1283 29.4011 74.6559 32.3726 77.6274C35.3441 80.5989 38.8717 82.956 42.7541 84.5641C46.6366 86.1723 50.7977 87 55 87L55 55L55 23Z" fill="#FB9333"/>
<g filter="url(#filter0_d_1_264)">
<circle cx="55" cy="55" r="27" fill="white"/>
</g>
<path d="M60 55L53.25 59.3301L53.25 50.6699L60 55Z" fill="#4D4F56"/>
<defs>
<filter id="filter0_d_1_264" x="0" y="0" width="110" height="110" filterUnits="userSpaceOnUse" color-interpolation-filters="sRGB">
<feFlood flood-opacity="0" result="BackgroundImageFix"/>
<feColorMatrix in="SourceAlpha" type="matrix" values="0 0 0 0 0 0 0 0 0 0 0 0 0 0 0 0 0 0 127 0" result="hardAlpha"/>
<feMorphology radius="12" operator="erode" in="SourceAlpha" result="effect1_dropShadow_1_264"/>
<feOffset/>
<feGaussianBlur stdDeviation="20"/>
<feColorMatrix type="matrix" values="0 0 0 0 0 0 0 0 0 0 0 0 0 0 0 0 0 0 0.2 0"/>
<feBlend mode="normal" in2="BackgroundImageFix" result="effect1_dropShadow_1_264"/>
<feBlend mode="normal" in="SourceGraphic" in2="effect1_dropShadow_1_264" result="shape"/>
</filter>
</defs>
</svg>
