<svg width="210" height="76" viewBox="0 0 210 76" fill="none" xmlns="http://www.w3.org/2000/svg">
<path d="M81.625 28.4205C81.5644 27.8826 81.3144 27.4659 80.875 27.1705C80.4356 26.8712 79.8826 26.7216 79.2159 26.7216C78.7386 26.7216 78.3258 26.7973 77.9773 26.9489C77.6288 27.0966 77.358 27.3011 77.1648 27.5625C76.9754 27.8201 76.8807 28.1136 76.8807 28.4432C76.8807 28.7197 76.9451 28.9583 77.0739 29.1591C77.2064 29.3598 77.3788 29.5284 77.5909 29.6648C77.8068 29.7973 78.0379 29.9091 78.2841 30C78.5303 30.0871 78.767 30.1591 78.9943 30.2159L80.1307 30.5114C80.5019 30.6023 80.8826 30.7254 81.2727 30.8807C81.6629 31.036 82.0246 31.2405 82.358 31.4943C82.6913 31.7481 82.9602 32.0625 83.1648 32.4375C83.3731 32.8125 83.4773 33.2614 83.4773 33.7841C83.4773 34.4432 83.3068 35.0284 82.9659 35.5398C82.6288 36.0511 82.1383 36.4545 81.4943 36.75C80.8542 37.0455 80.0795 37.1932 79.1705 37.1932C78.2992 37.1932 77.5455 37.0549 76.9091 36.7784C76.2727 36.5019 75.7746 36.1098 75.4148 35.6023C75.0549 35.0909 74.8561 34.4848 74.8182 33.7841H76.5795C76.6136 34.2045 76.75 34.5549 76.9886 34.8352C77.2311 35.1117 77.5398 35.3182 77.9148 35.4545C78.2936 35.5871 78.7083 35.6534 79.1591 35.6534C79.6553 35.6534 80.0966 35.5758 80.483 35.4205C80.8731 35.2614 81.1799 35.0417 81.4034 34.7614C81.6269 34.4773 81.7386 34.1458 81.7386 33.767C81.7386 33.4223 81.6402 33.1402 81.4432 32.9205C81.25 32.7008 80.9867 32.5189 80.6534 32.375C80.3239 32.2311 79.9508 32.1042 79.5341 31.9943L78.1591 31.6193C77.2273 31.3655 76.4886 30.9924 75.9432 30.5C75.4015 30.0076 75.1307 29.3561 75.1307 28.5455C75.1307 27.875 75.3125 27.2898 75.6761 26.7898C76.0398 26.2898 76.5322 25.9015 77.1534 25.625C77.7746 25.3447 78.4754 25.2045 79.2557 25.2045C80.0436 25.2045 80.7386 25.3428 81.3409 25.6193C81.947 25.8958 82.4242 26.2765 82.7727 26.7614C83.1212 27.2424 83.303 27.7955 83.3182 28.4205H81.625ZM87.9787 37.1932C87.4257 37.1932 86.9257 37.0909 86.4787 36.8864C86.0317 36.678 85.6776 36.3769 85.4162 35.983C85.1586 35.589 85.0298 35.1061 85.0298 34.5341C85.0298 34.0417 85.1245 33.6364 85.3139 33.3182C85.5033 33 85.759 32.7481 86.081 32.5625C86.4029 32.3769 86.7628 32.2367 87.1605 32.142C87.5582 32.0473 87.9635 31.9754 88.3764 31.9261C88.8991 31.8655 89.3234 31.8163 89.6491 31.7784C89.9749 31.7367 90.2116 31.6705 90.3594 31.5795C90.5071 31.4886 90.581 31.3409 90.581 31.1364V31.0966C90.581 30.6004 90.4408 30.2159 90.1605 29.9432C89.884 29.6705 89.4711 29.5341 88.9219 29.5341C88.3499 29.5341 87.8991 29.661 87.5696 29.9148C87.2438 30.1648 87.0185 30.4432 86.8935 30.75L85.2969 30.3864C85.4863 29.8561 85.7628 29.428 86.1264 29.1023C86.4938 28.7727 86.9162 28.5341 87.3935 28.3864C87.8707 28.2348 88.3726 28.1591 88.8991 28.1591C89.2476 28.1591 89.617 28.2008 90.0071 28.2841C90.401 28.3636 90.7685 28.5114 91.1094 28.7273C91.4541 28.9432 91.7363 29.2519 91.956 29.6534C92.1757 30.0511 92.2855 30.5682 92.2855 31.2045V37H90.6264V35.8068H90.5582C90.4484 36.0265 90.2836 36.2424 90.0639 36.4545C89.8442 36.6667 89.562 36.8428 89.2173 36.983C88.8726 37.1231 88.4598 37.1932 87.9787 37.1932ZM88.348 35.8295C88.8177 35.8295 89.2192 35.7367 89.5526 35.5511C89.8897 35.3655 90.1454 35.1231 90.3196 34.8239C90.4976 34.5208 90.5866 34.197 90.5866 33.8523V32.7273C90.526 32.7879 90.4086 32.8447 90.2344 32.8977C90.0639 32.947 89.8688 32.9905 89.6491 33.0284C89.4295 33.0625 89.2154 33.0947 89.0071 33.125C88.7988 33.1515 88.6245 33.1742 88.4844 33.1932C88.1548 33.2348 87.8537 33.3049 87.581 33.4034C87.312 33.5019 87.0961 33.6439 86.9332 33.8295C86.7741 34.0114 86.6946 34.2538 86.6946 34.5568C86.6946 34.9773 86.8499 35.2955 87.1605 35.5114C87.4711 35.7235 87.867 35.8295 88.348 35.8295ZM98.7017 28.2727V29.6364H93.7699V28.2727H98.7017ZM95.1222 37V27.2614C95.1222 26.7159 95.2415 26.2633 95.4801 25.9034C95.7188 25.5398 96.035 25.2689 96.429 25.0909C96.8229 24.9091 97.2509 24.8182 97.7131 24.8182C98.054 24.8182 98.3456 24.8466 98.5881 24.9034C98.8305 24.9564 99.0104 25.0057 99.1278 25.0511L98.7301 26.4261C98.6506 26.4034 98.5483 26.3769 98.4233 26.3466C98.2983 26.3125 98.1468 26.2955 97.9688 26.2955C97.5559 26.2955 97.2604 26.3977 97.0824 26.6023C96.9081 26.8068 96.821 27.1023 96.821 27.4886V37H95.1222ZM103.872 37.1761C103.012 37.1761 102.272 36.9924 101.651 36.625C101.033 36.2538 100.556 35.733 100.219 35.0625C99.8854 34.3883 99.7188 33.5985 99.7188 32.6932C99.7188 31.7992 99.8854 31.0114 100.219 30.3295C100.556 29.6477 101.026 29.1155 101.628 28.733C102.234 28.3504 102.942 28.1591 103.753 28.1591C104.245 28.1591 104.723 28.2405 105.185 28.4034C105.647 28.5663 106.062 28.822 106.429 29.1705C106.796 29.5189 107.086 29.9716 107.298 30.5284C107.51 31.0814 107.616 31.7538 107.616 32.5455V33.1477H100.679V31.875H105.952C105.952 31.428 105.861 31.0322 105.679 30.6875C105.497 30.339 105.241 30.0644 104.912 29.8636C104.586 29.6629 104.204 29.5625 103.764 29.5625C103.287 29.5625 102.87 29.6799 102.514 29.9148C102.162 30.1458 101.889 30.4489 101.696 30.8239C101.507 31.1951 101.412 31.5985 101.412 32.0341V33.0284C101.412 33.6117 101.514 34.108 101.719 34.517C101.927 34.9261 102.217 35.2386 102.588 35.4545C102.959 35.6667 103.393 35.7727 103.889 35.7727C104.211 35.7727 104.505 35.7273 104.77 35.6364C105.035 35.5417 105.264 35.4015 105.457 35.2159C105.651 35.0303 105.798 34.8011 105.901 34.5284L107.509 34.8182C107.38 35.2917 107.149 35.7064 106.815 36.0625C106.486 36.4148 106.071 36.6894 105.571 36.8864C105.075 37.0795 104.509 37.1761 103.872 37.1761ZM113.298 26.875V25.3636H122.304V26.875H118.673V37H116.923V26.875H113.298ZM126.568 37.1761C125.75 37.1761 125.036 36.9886 124.426 36.6136C123.816 36.2386 123.343 35.714 123.006 35.0398C122.669 34.3655 122.5 33.5777 122.5 32.6761C122.5 31.7708 122.669 30.9792 123.006 30.3011C123.343 29.6231 123.816 29.0966 124.426 28.7216C125.036 28.3466 125.75 28.1591 126.568 28.1591C127.386 28.1591 128.1 28.3466 128.71 28.7216C129.32 29.0966 129.794 29.6231 130.131 30.3011C130.468 30.9792 130.636 31.7708 130.636 32.6761C130.636 33.5777 130.468 34.3655 130.131 35.0398C129.794 35.714 129.32 36.2386 128.71 36.6136C128.1 36.9886 127.386 37.1761 126.568 37.1761ZM126.574 35.75C127.104 35.75 127.544 35.6098 127.892 35.3295C128.241 35.0492 128.498 34.6761 128.665 34.2102C128.835 33.7443 128.92 33.2311 128.92 32.6705C128.92 32.1136 128.835 31.6023 128.665 31.1364C128.498 30.6667 128.241 30.2898 127.892 30.0057C127.544 29.7216 127.104 29.5795 126.574 29.5795C126.04 29.5795 125.597 29.7216 125.244 30.0057C124.896 30.2898 124.636 30.6667 124.466 31.1364C124.299 31.6023 124.216 32.1136 124.216 32.6705C124.216 33.2311 124.299 33.7443 124.466 34.2102C124.636 34.6761 124.896 35.0492 125.244 35.3295C125.597 35.6098 126.04 35.75 126.574 35.75ZM138.061 33.3807V28.2727H139.766V37H138.095V35.4886H138.004C137.804 35.9545 137.482 36.3428 137.038 36.6534C136.599 36.9602 136.052 37.1136 135.396 37.1136C134.836 37.1136 134.339 36.9905 133.908 36.7443C133.48 36.4943 133.143 36.125 132.896 35.6364C132.654 35.1477 132.533 34.5436 132.533 33.8239V28.2727H134.232V33.6193C134.232 34.214 134.396 34.6875 134.726 35.0398C135.055 35.392 135.483 35.5682 136.01 35.5682C136.328 35.5682 136.644 35.4886 136.959 35.3295C137.277 35.1705 137.54 34.9299 137.749 34.608C137.961 34.286 138.065 33.8769 138.061 33.3807ZM142.048 37V28.2727H143.69V29.6591H143.781C143.94 29.1894 144.221 28.8201 144.622 28.5511C145.027 28.2784 145.486 28.142 145.997 28.142C146.103 28.142 146.228 28.1458 146.372 28.1534C146.52 28.161 146.635 28.1705 146.719 28.1818V29.8068C146.651 29.7879 146.529 29.767 146.355 29.7443C146.181 29.7178 146.007 29.7045 145.832 29.7045C145.431 29.7045 145.073 29.7898 144.759 29.9602C144.448 30.1269 144.202 30.3598 144.02 30.6591C143.838 30.9545 143.747 31.2917 143.747 31.6705V37H142.048ZM153.543 37H151.679L155.866 25.3636H157.895L162.082 37H160.219L156.929 27.4773H156.838L153.543 37ZM153.855 32.4432H159.901V33.9205H153.855V32.4432ZM167.145 40.4545C166.452 40.4545 165.855 40.3636 165.355 40.1818C164.859 40 164.454 39.7595 164.139 39.4602C163.825 39.161 163.59 38.8333 163.435 38.4773L164.895 37.875C164.997 38.0417 165.134 38.2178 165.304 38.4034C165.478 38.5928 165.713 38.7538 166.009 38.8864C166.308 39.0189 166.692 39.0852 167.162 39.0852C167.806 39.0852 168.338 38.928 168.759 38.6136C169.179 38.303 169.389 37.8068 169.389 37.125V35.4091H169.281C169.179 35.5947 169.031 35.8011 168.838 36.0284C168.649 36.2557 168.387 36.4527 168.054 36.6193C167.721 36.786 167.287 36.8693 166.753 36.8693C166.063 36.8693 165.442 36.7083 164.889 36.3864C164.34 36.0606 163.904 35.5814 163.582 34.9489C163.264 34.3125 163.105 33.5303 163.105 32.6023C163.105 31.6742 163.262 30.8788 163.577 30.2159C163.895 29.553 164.33 29.0455 164.884 28.6932C165.437 28.3371 166.063 28.1591 166.764 28.1591C167.306 28.1591 167.743 28.25 168.077 28.4318C168.41 28.6098 168.67 28.8182 168.855 29.0568C169.045 29.2955 169.19 29.5057 169.293 29.6875H169.418V28.2727H171.082V37.1932C171.082 37.9432 170.908 38.5587 170.56 39.0398C170.211 39.5208 169.74 39.8769 169.145 40.108C168.554 40.339 167.887 40.4545 167.145 40.4545ZM167.128 35.4602C167.616 35.4602 168.029 35.3466 168.366 35.1193C168.707 34.8883 168.965 34.5587 169.139 34.1307C169.317 33.6989 169.406 33.1818 169.406 32.5795C169.406 31.9924 169.319 31.4754 169.145 31.0284C168.971 30.5814 168.715 30.233 168.378 29.983C168.041 29.7292 167.624 29.6023 167.128 29.6023C166.616 29.6023 166.19 29.7348 165.849 30C165.509 30.2614 165.251 30.6174 165.077 31.0682C164.906 31.5189 164.821 32.0227 164.821 32.5795C164.821 33.1515 164.908 33.6534 165.082 34.0852C165.257 34.517 165.514 34.8542 165.855 35.0966C166.2 35.339 166.624 35.4602 167.128 35.4602ZM177.122 37.1761C176.262 37.1761 175.522 36.9924 174.901 36.625C174.283 36.2538 173.806 35.733 173.469 35.0625C173.135 34.3883 172.969 33.5985 172.969 32.6932C172.969 31.7992 173.135 31.0114 173.469 30.3295C173.806 29.6477 174.276 29.1155 174.878 28.733C175.484 28.3504 176.192 28.1591 177.003 28.1591C177.495 28.1591 177.973 28.2405 178.435 28.4034C178.897 28.5663 179.312 28.822 179.679 29.1705C180.046 29.5189 180.336 29.9716 180.548 30.5284C180.76 31.0814 180.866 31.7538 180.866 32.5455V33.1477H173.929V31.875H179.202C179.202 31.428 179.111 31.0322 178.929 30.6875C178.747 30.339 178.491 30.0644 178.162 29.8636C177.836 29.6629 177.454 29.5625 177.014 29.5625C176.537 29.5625 176.12 29.6799 175.764 29.9148C175.412 30.1458 175.139 30.4489 174.946 30.8239C174.757 31.1951 174.662 31.5985 174.662 32.0341V33.0284C174.662 33.6117 174.764 34.108 174.969 34.517C175.177 34.9261 175.467 35.2386 175.838 35.4545C176.209 35.6667 176.643 35.7727 177.139 35.7727C177.461 35.7727 177.755 35.7273 178.02 35.6364C178.285 35.5417 178.514 35.4015 178.707 35.2159C178.901 35.0303 179.048 34.8011 179.151 34.5284L180.759 34.8182C180.63 35.2917 180.399 35.7064 180.065 36.0625C179.736 36.4148 179.321 36.6894 178.821 36.8864C178.325 37.0795 177.759 37.1761 177.122 37.1761ZM184.45 31.8182V37H182.751V28.2727H184.382V29.6932H184.49C184.691 29.2311 185.005 28.8598 185.433 28.5795C185.865 28.2992 186.409 28.1591 187.064 28.1591C187.659 28.1591 188.179 28.2841 188.626 28.5341C189.073 28.7803 189.42 29.1477 189.666 29.6364C189.912 30.125 190.036 30.7292 190.036 31.4489V37H188.337V31.6534C188.337 31.0208 188.172 30.5265 187.842 30.1705C187.513 29.8106 187.06 29.6307 186.484 29.6307C186.09 29.6307 185.74 29.7159 185.433 29.8864C185.13 30.0568 184.89 30.3068 184.712 30.6364C184.537 30.9621 184.45 31.3561 184.45 31.8182ZM195.99 37.1761C195.145 37.1761 194.418 36.9848 193.808 36.6023C193.202 36.2159 192.736 35.6837 192.411 35.0057C192.085 34.3277 191.922 33.5511 191.922 32.6761C191.922 31.7898 192.089 31.0076 192.422 30.3295C192.755 29.6477 193.225 29.1155 193.831 28.733C194.437 28.3504 195.151 28.1591 195.973 28.1591C196.636 28.1591 197.227 28.2822 197.746 28.5284C198.265 28.7708 198.683 29.1117 199.001 29.5511C199.323 29.9905 199.515 30.5038 199.575 31.0909H197.922C197.831 30.6818 197.623 30.3295 197.297 30.0341C196.975 29.7386 196.543 29.5909 196.001 29.5909C195.528 29.5909 195.113 29.7159 194.757 29.9659C194.405 30.2121 194.13 30.5644 193.933 31.0227C193.736 31.4773 193.638 32.0152 193.638 32.6364C193.638 33.2727 193.734 33.822 193.928 34.2841C194.121 34.7462 194.393 35.1042 194.746 35.358C195.102 35.6117 195.52 35.7386 196.001 35.7386C196.323 35.7386 196.615 35.6799 196.876 35.5625C197.142 35.4413 197.363 35.2689 197.541 35.0455C197.723 34.822 197.85 34.553 197.922 34.2386H199.575C199.515 34.803 199.331 35.3068 199.024 35.75C198.717 36.1932 198.306 36.5417 197.791 36.7955C197.28 37.0492 196.679 37.1761 195.99 37.1761ZM202.466 40.2727C202.212 40.2727 201.981 40.2519 201.773 40.2102C201.564 40.1723 201.409 40.1307 201.307 40.0852L201.716 38.6932C202.027 38.7765 202.303 38.8125 202.545 38.8011C202.788 38.7898 203.002 38.6989 203.188 38.5284C203.377 38.358 203.544 38.0795 203.688 37.6932L203.898 37.1136L200.705 28.2727H202.523L204.733 35.0455H204.824L207.034 28.2727H208.858L205.261 38.1648C205.095 38.6193 204.883 39.0038 204.625 39.3182C204.367 39.6364 204.061 39.875 203.705 40.0341C203.348 40.1932 202.936 40.2727 202.466 40.2727Z" fill="#737979"/>
<g filter="url(#filter0_d_1_212)">
<rect x="16" y="9" width="44" height="44" rx="8" fill="white"/>
</g>
<path d="M48 31C48 36.5228 43.5228 41 38 41C32.4772 41 28 36.5228 28 31C28 25.4772 32.4772 21 38 21C43.5228 21 48 25.4772 48 31Z" fill="#FF7B29"/>
<path d="M35.9612 29.8189H37.4349C37.4136 28.5227 36.3483 27.6278 34.729 27.6278C33.1345 27.6278 31.9662 28.5085 31.9733 29.8295C31.9697 30.902 32.7261 31.5163 33.9548 31.8111L34.7467 32.0099C35.5386 32.2017 35.979 32.429 35.9825 32.919C35.979 33.4517 35.4747 33.8139 34.6934 33.8139C33.8944 33.8139 33.3192 33.4446 33.2694 32.7166H31.7815C31.8206 34.2898 32.9463 35.103 34.7112 35.103C36.4868 35.103 37.5308 34.2543 37.5344 32.9226C37.5308 31.7116 36.6182 31.0689 35.354 30.7848L34.7006 30.6286C34.0684 30.483 33.5393 30.2486 33.55 29.7266C33.55 29.2578 33.9655 28.9134 34.7183 28.9134C35.4534 28.9134 35.9044 29.2472 35.9612 29.8189ZM38.2916 28.995H40.5182V35H42.0381V28.995H44.2646V27.7273H38.2916V28.995Z" fill="white"/>
<defs>
<filter id="filter0_d_1_212" x="0" y="0" width="76" height="76" filterUnits="userSpaceOnUse" color-interpolation-filters="sRGB">
<feFlood flood-opacity="0" result="BackgroundImageFix"/>
<feColorMatrix in="SourceAlpha" type="matrix" values="0 0 0 0 0 0 0 0 0 0 0 0 0 0 0 0 0 0 127 0" result="hardAlpha"/>
<feOffset dy="7"/>
<feGaussianBlur stdDeviation="8"/>
<feColorMatrix type="matrix" values="0 0 0 0 0 0 0 0 0 0 0 0 0 0 0 0 0 0 0.04 0"/>
<feBlend mode="normal" in2="BackgroundImageFix" result="effect1_dropShadow_1_212"/>
<feBlend mode="normal" in="SourceGraphic" in2="effect1_dropShadow_1_212" result="shape"/>
</filter>
</defs>
</svg>
